<?xml version="1.0" encoding="UTF-8"?>
<svg id="Layer_2" data-name="Layer 2" xmlns="http://www.w3.org/2000/svg" viewBox="0 0 104.61 104.61">
  <defs>
    <style>
      .cls-1 {
        fill: #ce7436;
      }

      .cls-1, .cls-2 {
        stroke-width: 0px;
      }

      .cls-2 {
        fill: #d6e28e;
      }
    </style>
  </defs>
  <g id="Layer_1-2" data-name="Layer 1">
    <circle class="cls-2" cx="52.31" cy="52.31" r="52.31"/>
    <g>
      <path class="cls-1" d="M75.14,77.28c-.04,4.71-3.99,7.47-8.56,6.23-1.8-.49-3.54-1.23-5.25-2.01-4.76-2.15-9.49-1.99-14.3-.17-2.68,1.02-5.32,2.27-8.31,2.16-4.18-.15-6.76-2.75-6.76-6.85,0-8.42,8.56-20.13,16.48-22.54,4.23-1.29,8.44-1.08,12.03,1.49,6.87,4.9,11.72,11.42,14.3,19.52.26.81.29,1.7.36,2.17Z"/>
      <path class="cls-1" d="M71.21,30.22c.05,5.05-1.26,8.8-4.17,11.87-3.85,4.05-9.25,3.21-11.74-1.73-2.39-4.74-1.39-12.31,2.29-16.26,1.91-2.04,4.2-3.84,7.19-3.14,3.19.75,5.15,3.07,5.97,6.24.32,1.25.4,2.56.47,3.02Z"/>
      <path class="cls-1" d="M50.22,35.42c-.32,3.65-1.06,7.44-5.23,8.86-4.28,1.45-7.18-1.17-9.36-4.37-2.42-3.55-3.32-7.59-2.45-11.89.68-3.34,2.52-5.94,5.84-6.79,3.1-.8,5.45,1.1,7.49,3.24,2.87,3.01,3.37,6.84,3.72,10.95Z"/>
      <path class="cls-1" d="M19.71,48.76c0-3.06.79-5.74,3.74-7.25,3.06-1.57,5.63-.25,7.93,1.65,4.34,3.6,6.26,8.21,5.06,13.82-1.02,4.76-4.74,6.47-9.19,4.45-4.48-2.04-7.62-7.31-7.53-12.67Z"/>
      <path class="cls-1" d="M84.89,49.48c-.45,4.09-2.17,8.55-7.12,10.87-4.62,2.17-8.74-.08-9.73-5.03-.99-4.98,1.78-11.69,6.06-14.29,2.3-1.4,4.84-1.97,7.34-.43,2.9,1.8,3.56,4.68,3.45,8.88Z"/>
    </g>
  </g>
</svg>