<?xml version="1.0" encoding="UTF-8"?>
<svg id="Layer_2" data-name="Layer 2" xmlns="http://www.w3.org/2000/svg" viewBox="0 0 104.61 104.61">
  <defs>
    <style>
      .cls-1 {
        fill: #ce7436;
      }

      .cls-1, .cls-2, .cls-3, .cls-4 {
        stroke-width: 0px;
      }

      .cls-2 {
        fill: #d6e28e;
      }

      .cls-3 {
        fill: #773b13;
      }

      .cls-4 {
        fill: #fff;
      }
    </style>
  </defs>
  <g id="Layer_1-2" data-name="Layer 1">
    <g>
      <circle class="cls-2" cx="52.31" cy="52.31" r="52.31"/>
      <g>
        <path class="cls-1" d="M68.23,68.82c-.03,3.28-2.78,5.21-5.97,4.34-1.25-.34-2.47-.86-3.66-1.4-3.32-1.5-6.62-1.39-9.97-.12-1.87.71-3.71,1.58-5.8,1.51-2.92-.11-4.71-1.92-4.71-4.78,0-5.87,5.97-14.03,11.49-15.72,2.95-.9,5.88-.75,8.39,1.04,4.79,3.42,8.17,7.96,9.97,13.61.18.57.2,1.18.25,1.52Z"/>
        <path class="cls-1" d="M65.49,36c.04,3.52-.88,6.14-2.91,8.28-2.68,2.82-6.45,2.24-8.19-1.21-1.67-3.3-.97-8.59,1.6-11.34,1.33-1.42,2.93-2.68,5.01-2.19,2.23.52,3.59,2.14,4.16,4.35.22.87.28,1.78.33,2.11Z"/>
        <path class="cls-1" d="M50.85,39.63c-.23,2.54-.74,5.19-3.65,6.18-2.98,1.01-5.01-.81-6.53-3.05-1.69-2.48-2.32-5.29-1.71-8.29.47-2.33,1.76-4.14,4.07-4.74,2.16-.56,3.8.77,5.23,2.26,2,2.1,2.35,4.77,2.59,7.64Z"/>
        <path class="cls-1" d="M29.58,48.93c0-2.13.55-4,2.61-5.05,2.13-1.09,3.93-.18,5.53,1.15,3.02,2.51,4.36,5.73,3.53,9.63-.71,3.32-3.3,4.51-6.41,3.1-3.12-1.42-5.31-5.1-5.25-8.83Z"/>
        <path class="cls-1" d="M75.03,49.43c-.31,2.85-1.51,5.96-4.96,7.58-3.22,1.51-6.1-.05-6.78-3.51-.69-3.47,1.24-8.15,4.23-9.97,1.61-.98,3.38-1.38,5.12-.3,2.02,1.25,2.48,3.26,2.41,6.19Z"/>
      </g>
      <g>
        <path class="cls-3" d="M12.06,51.05c.41.19.75.52,1.02.97.27.46.42,1.05.45,1.77l.07,1.6,3.58-.16.06,1.45-8.82.39-.13-3.05c-.03-.68.06-1.26.27-1.74.21-.48.51-.84.9-1.1.39-.25.83-.39,1.32-.41.45-.02.88.07,1.28.26ZM11.92,52.63c-.26-.26-.62-.38-1.08-.36-.96.04-1.42.61-1.37,1.7l.07,1.6,2.88-.13-.07-1.6c-.02-.55-.17-.96-.43-1.21Z"/>
        <path class="cls-3" d="M18.13,43.59l-3.87,1.27-.22,1.08,3.46.72-.29,1.42-8.64-1.8.62-2.99c.14-.66.37-1.2.7-1.61.33-.41.71-.69,1.15-.84.44-.15.9-.17,1.38-.07.56.12,1.04.39,1.43.81s.6.99.63,1.71l4.03-1.39-.35,1.69ZM12.9,45.71l.33-1.57c.11-.53.06-.96-.15-1.28-.21-.33-.54-.53-.99-.63s-.83-.03-1.13.18c-.31.21-.52.59-.63,1.13l-.33,1.57,2.9.6Z"/>
        <path class="cls-3" d="M19.69,37.54c-.66.43-1.4.66-2.19.69s-1.58-.16-2.34-.56-1.35-.95-1.77-1.63c-.42-.68-.63-1.41-.65-2.2-.02-.79.17-1.55.56-2.27.39-.73.92-1.31,1.58-1.74.66-.43,1.39-.66,2.19-.68.79-.03,1.57.16,2.33.57.76.41,1.36.95,1.78,1.62.42.67.64,1.41.66,2.2s-.17,1.55-.56,2.29c-.39.72-.91,1.3-1.58,1.73ZM20.54,33.65c-.02-.53-.19-1.02-.5-1.48-.32-.46-.76-.84-1.34-1.15s-1.14-.46-1.7-.46c-.55,0-1.06.14-1.5.42-.45.28-.81.68-1.08,1.19-.27.52-.4,1.04-.39,1.56s.18,1.02.49,1.48c.31.46.76.84,1.33,1.15.58.31,1.14.46,1.7.47.56,0,1.06-.13,1.51-.41.45-.28.81-.67,1.09-1.19s.4-1.04.38-1.57Z"/>
        <path class="cls-3" d="M22.48,19.74l.86.81-1.62,1.7,5.54,5.27-1,1.05-5.54-5.27-1.63,1.71-.86-.81,4.25-4.46Z"/>
        <path class="cls-3" d="M27.85,17.06l1.43,2.16,2.54-1.68.65.98-2.54,1.68,1.49,2.26,2.86-1.89.65.98-4.07,2.69-4.88-7.37,4.07-2.69.65.98-2.86,1.89Z"/>
        <path class="cls-3" d="M35.35,13.7c.16-.78.51-1.46,1.05-2.04.53-.58,1.19-1.01,1.97-1.26.89-.3,1.76-.34,2.6-.14.84.21,1.55.66,2.13,1.36l-1.65.55c-.36-.37-.77-.6-1.23-.69-.46-.09-.94-.05-1.45.12-.55.18-1.01.47-1.36.87-.35.39-.57.86-.66,1.41s-.03,1.13.17,1.75c.21.62.51,1.12.91,1.5.4.38.86.63,1.38.74.52.11,1.05.07,1.61-.11.51-.17.92-.43,1.23-.77s.5-.78.57-1.29l1.65-.55c-.05.91-.34,1.69-.89,2.36s-1.27,1.15-2.16,1.44c-.79.26-1.57.32-2.34.17-.77-.15-1.46-.49-2.06-1.01-.6-.52-1.03-1.2-1.31-2.02-.27-.82-.33-1.62-.16-2.4Z"/>
        <path class="cls-3" d="M53,8.18l.06,1.18-2.35.12.4,7.64-1.45.08-.4-7.64-2.36.12-.06-1.18,6.15-.32Z"/>
        <path class="cls-3" d="M60.76,15.98l.35-1.04,6-4.44,1.66.56-1.9,5.65,1.12.38-.4,1.19-1.12-.38-.62,1.83-1.35-.45.62-1.83-4.36-1.47ZM67.01,12.03l-4.27,3.29,2.84.96,1.43-4.25Z"/>
        <path class="cls-3" d="M80.62,23.77c-.42.16-.89.19-1.4.08s-1.05-.41-1.6-.88l-1.22-1.04-2.33,2.72-1.1-.94,5.74-6.71,2.32,1.98c.51.44.88.9,1.08,1.38.21.48.27.95.19,1.41-.08.45-.28.87-.6,1.24-.29.34-.65.59-1.07.76ZM79.56,22.59c.37-.01.7-.19,1-.54.63-.73.53-1.46-.3-2.17l-1.22-1.04-1.88,2.19,1.22,1.04c.42.36.81.53,1.18.52Z"/>
        <path class="cls-3" d="M83.77,32.85l-2.1-3.04-1.85.5-.86-1.24,9.08-2.41.95,1.38-5.49,7.62-.86-1.26,1.13-1.55ZM84.51,31.84l2.56-3.51-4.2,1.14,1.64,2.37Z"/>
        <path class="cls-3" d="M96.28,46.34l-9.21-.16-.44-1.58,5.94-3.58-6.96-.11-.45-1.56,7.85-4.78.41,1.48-6.44,3.69,7.46-.02.44,1.57-6.4,3.69,7.38-.14.42,1.49Z"/>
        <path class="cls-3" d="M87.68,52.24c.23-.47.54-.82.93-1.08.39-.25.84-.37,1.35-.35l-.07,1.55c-.38.02-.7.16-.96.41-.26.26-.4.63-.42,1.11-.02.5.08.89.31,1.18.23.29.53.44.91.46.3.01.54-.06.73-.23.19-.17.35-.38.46-.63.11-.25.24-.61.38-1.06.18-.57.35-1.03.52-1.38.17-.35.43-.65.77-.89.34-.24.79-.35,1.34-.32.51.02.95.17,1.32.44.37.27.65.64.83,1.1.18.47.26,1,.24,1.6-.04.85-.28,1.55-.73,2.07-.45.53-1.05.81-1.8.83l.07-1.6c.32-.01.6-.15.84-.42.24-.27.37-.63.39-1.09.02-.42-.07-.76-.27-1.03-.2-.27-.5-.42-.9-.43-.27-.01-.5.06-.68.22s-.33.36-.44.61-.24.59-.37,1.03c-.19.58-.37,1.05-.54,1.41-.18.36-.44.66-.78.91-.35.24-.8.35-1.36.33-.45-.02-.87-.16-1.25-.42-.39-.26-.69-.62-.91-1.09s-.32-1.02-.29-1.65c.03-.59.15-1.12.38-1.59Z"/>
      </g>
      <g>
        <path class="cls-4" d="M27.34,78.67l-8.72,3.09-1.05-1.39,4.15-5.6-6.6,2.35-1.05-1.37,5.46-7.45.98,1.31-4.57,5.88,7.01-2.64,1.04,1.38-4.53,5.87,6.89-2.74.99,1.32Z"/>
        <path class="cls-4" d="M30.48,80.43l-5.39,6.99-1.22-.94,5.39-6.99,1.22.94Z"/>
        <path class="cls-4" d="M30.72,89.66l2.79,1.51-.55,1.03-4.15-2.24,4.19-7.77,1.35.73-3.63,6.74Z"/>
        <path class="cls-4" d="M44.38,87.29c.63.54,1.06,1.19,1.28,1.95s.22,1.57-.02,2.44c-.23.87-.63,1.57-1.2,2.1-.57.53-1.26.87-2.08,1.01-.82.15-1.71.09-2.67-.17l-2.96-.79,2.29-8.53,2.96.79c.97.26,1.76.66,2.4,1.2ZM42.66,93.32c.71-.39,1.2-1.07,1.46-2.06.27-.99.19-1.84-.23-2.55-.42-.71-1.15-1.2-2.22-1.49l-1.47-.39-1.67,6.25,1.47.39c1.06.28,1.95.23,2.66-.16Z"/>
        <path class="cls-4" d="M50.62,88.69l-.06,2.59,3.24.07-.03,1.18-3.24-.07-.06,2.7,3.65.08-.03,1.18-5.18-.12.2-8.84,5.18.12-.03,1.18-3.65-.08Z"/>
        <path class="cls-4" d="M63.55,95.12l-2.82-3.03-1.15.23.71,3.46-1.51.31-1.77-8.65,3.18-.65c.71-.14,1.33-.15,1.86-.02.54.13.97.37,1.29.71.32.34.53.75.63,1.23.11.56.05,1.11-.21,1.64-.25.53-.73.95-1.42,1.27l3.01,3.12-1.8.37ZM59.35,91.19l1.67-.34c.56-.12.96-.33,1.2-.66.23-.32.3-.71.21-1.16-.09-.45-.3-.77-.64-.97-.33-.19-.79-.23-1.36-.12l-1.67.34.59,2.9Z"/>
        <path class="cls-4" d="M70.4,90.98l-.21,3.86-.93.37-.42-3.61,1.55-.63Z"/>
        <path class="cls-4" d="M83.52,84.54l-5.32-.68,2.54,3.02-1.18.99-5.69-6.75,1.18-.99,2.59,3.08.19-5.43,1.48-1.24-.27,6.01,6.01.7-1.54,1.3Z"/>
        <path class="cls-4" d="M84.64,69.18l2.86,5.75,2.63,1.82-.87,1.27-2.63-1.82-6.4-.63.97-1.41,4.8.67-2.33-4.25.97-1.4Z"/>
      </g>
      <path class="cls-4" d="M11.51,61.84c-.68,0-1.23.55-1.23,1.23s.55,1.23,1.23,1.23,1.23-.55,1.23-1.23-.55-1.23-1.23-1.23ZM12.18,63.07c0,.37-.3.67-.67.67s-.67-.3-.67-.67.3-.67.67-.67.67.3.67.67Z"/>
      <path class="cls-4" d="M91.94,61.84c-.68,0-1.23.55-1.23,1.23s.55,1.23,1.23,1.23,1.23-.55,1.23-1.23-.55-1.23-1.23-1.23ZM92.6,63.07c0,.37-.3.67-.67.67s-.67-.3-.67-.67.3-.67.67-.67.67.3.67.67Z"/>
    </g>
  </g>
</svg>